<svg width="44" height="44" viewBox="0 0 44 44" fill="none" xmlns="http://www.w3.org/2000/svg">
<rect width="44" height="44" rx="22" fill="black" fill-opacity="0.04"/>
<path fill-rule="evenodd" clip-rule="evenodd" d="M16.4704 12.0017L16.4971 12.0034C17.021 12.0469 17.476 12.3072 17.8913 12.713C18.6807 13.484 20.3757 15.7337 20.5036 16.3459C20.6453 17.0289 20.4938 17.4725 20.0424 18.2572L19.933 18.4506C19.7258 18.829 19.6942 18.9852 19.7583 19.1641C20.7439 21.5763 22.4259 23.258 24.8106 24.232C25.0364 24.3138 25.2069 24.2669 25.6842 23.9931L25.9332 23.8522C26.6042 23.4842 27.0294 23.3679 27.6565 23.4985C28.2666 23.6264 30.5176 25.3224 31.2873 26.1108C31.6926 26.5257 31.9535 26.9816 31.999 27.5399C32.0469 28.8972 30.3908 30.8082 29.3805 31.3828C28.2317 32.2046 26.7737 32.191 25.139 31.4301C20.8641 29.6513 14.325 23.1539 12.5824 18.8843L12.4781 18.6455C11.8164 17.064 11.8307 15.6977 12.589 14.6676C13.2809 13.5218 15.1463 11.9405 16.4704 12.0017ZM16.39 13.4641L16.3018 13.4687C15.6222 13.559 14.2594 14.7322 13.8055 15.4785L13.7271 15.5952C13.3361 16.2322 13.3815 17.107 13.9258 18.3049L14.0298 18.5484C15.7854 22.4884 21.8637 28.4824 25.7287 30.0913L25.9416 30.186C27.0598 30.66 27.9064 30.6389 28.5917 30.153L28.6424 30.1204C28.8545 29.973 29.3435 29.5287 29.7202 29.094C30.2493 28.4835 30.5489 27.9241 30.5393 27.6264C30.5287 27.499 30.4304 27.3273 30.2411 27.1334C29.6689 26.5474 27.5877 24.9793 27.3577 24.9311C27.1402 24.8858 26.9617 24.9466 26.4736 25.2275L26.228 25.3654C25.5088 25.7533 25.0018 25.8575 24.2855 25.5975C21.5095 24.4644 19.5387 22.4939 18.3936 19.69C18.1224 18.9403 18.2684 18.4098 18.7401 17.5878L18.8524 17.3901C19.0667 17.0032 19.1121 16.8391 19.0717 16.6444C19.0233 16.4131 17.4563 14.3332 16.8694 13.7601C16.6751 13.5702 16.5044 13.4725 16.3766 13.4619L16.39 13.4641Z" fill="#0C0C0C"/>
</svg>
