<svg width="56" height="56" viewBox="0 0 56 56" fill="none" xmlns="http://www.w3.org/2000/svg">
<rect width="56" height="56" rx="28" fill="#F5F7F6"/>
<path d="M38 22.5H32" stroke="#303331" stroke-width="1.5" stroke-miterlimit="10" stroke-linecap="round" stroke-linejoin="round"/>
<path d="M22 22.5H18" stroke="#303331" stroke-width="1.5" stroke-miterlimit="10" stroke-linecap="round" stroke-linejoin="round"/>
<path d="M26 26C27.933 26 29.5 24.433 29.5 22.5C29.5 20.567 27.933 19 26 19C24.067 19 22.5 20.567 22.5 22.5C22.5 24.433 24.067 26 26 26Z" stroke="#303331" stroke-width="1.5" stroke-miterlimit="10" stroke-linecap="round" stroke-linejoin="round"/>
<path d="M38 33.5H34" stroke="#303331" stroke-width="1.5" stroke-miterlimit="10" stroke-linecap="round" stroke-linejoin="round"/>
<path d="M24 33.5H18" stroke="#303331" stroke-width="1.5" stroke-miterlimit="10" stroke-linecap="round" stroke-linejoin="round"/>
<path d="M30 37C31.933 37 33.5 35.433 33.5 33.5C33.5 31.567 31.933 30 30 30C28.067 30 26.5 31.567 26.5 33.5C26.5 35.433 28.067 37 30 37Z" stroke="#303331" stroke-width="1.5" stroke-miterlimit="10" stroke-linecap="round" stroke-linejoin="round"/>
</svg>
