<svg width="216" height="48" viewBox="0 0 216 48" fill="none" xmlns="http://www.w3.org/2000/svg">
<g clip-path="url(#clip0_3121_9075)">
<g clip-path="url(#clip1_3121_9075)">
<path d="M24.002 48C37.2568 48 48.0019 37.2548 48.0019 24C48.0019 10.7452 37.2568 0 24.002 0C10.7471 0 0.00195312 10.7452 0.00195312 24C0.00195312 37.2548 10.7471 48 24.002 48Z" fill="url(#paint0_radial_3121_9075)"/>
<path d="M24 41.4771C33.6505 41.4771 41.4737 33.6539 41.4737 24.0034C41.4737 14.353 33.6505 6.52979 24 6.52979C14.3496 6.52979 6.52637 14.353 6.52637 24.0034C6.52637 33.6539 14.3496 41.4771 24 41.4771Z" stroke="white" stroke-width="0.413661" stroke-miterlimit="10"/>
<path d="M0 23.9958H6.66942" stroke="white" stroke-width="0.413661" stroke-miterlimit="10"/>
<path d="M41.3301 23.9958H47.9995" stroke="white" stroke-width="0.413661" stroke-miterlimit="10"/>
<path d="M6.80475 13.6976L7.75588 14.3005L7.61778 14.5183L5.53753 13.1997L5.67563 12.9819L6.59487 13.5645L7.34597 12.3796L6.42673 11.7969L6.56482 11.5791L8.64507 12.8977L8.50698 13.1156L7.55586 12.5127L6.80475 13.6976Z" fill="white"/>
<path d="M7.5334 10.3355L9.45452 11.8872L9.29202 12.0884L7.3709 10.5367L7.5334 10.3355Z" fill="white"/>
<path d="M10.5929 8.2112L10.5003 8.45004C10.3369 8.36748 10.1639 8.33815 9.98122 8.35318C9.79858 8.3682 9.6215 8.45672 9.45217 8.62098C9.26026 8.80715 9.16115 9.03477 9.1571 9.30165C9.1553 9.56634 9.25403 9.80363 9.45772 10.0136C9.65922 10.2213 9.89108 10.3338 10.1555 10.3534C10.42 10.3686 10.655 10.2765 10.8649 10.0728C11.0297 9.91291 11.126 9.72751 11.1537 9.5166C11.1836 9.3035 11.1242 9.11129 10.9756 8.93997L10.2373 9.65618L10.0708 9.48459L11.0078 8.57564L11.0735 8.64338C11.2969 8.87367 11.4086 9.13786 11.4062 9.43813C11.4061 9.73621 11.2797 10.0079 11.0291 10.251C10.7649 10.5073 10.4694 10.6274 10.1426 10.6157C9.81579 10.6041 9.52644 10.4684 9.27676 10.2111C9.02926 9.95594 8.9048 9.65596 8.90548 9.31785C8.90617 8.97973 9.03298 8.6858 9.28585 8.4405C9.48905 8.24338 9.70876 8.13104 9.94716 8.10574C10.1856 8.07599 10.4009 8.11263 10.5929 8.2112Z" fill="white"/>
<path d="M12.0414 7.88627L12.6902 8.80669L12.4794 8.9553L11.0603 6.9422L11.2712 6.79359L11.8982 7.68316L13.0449 6.87487L12.4178 5.9853L12.6287 5.83669L14.0477 7.84979L13.8369 7.9984L13.1881 7.07798L12.0414 7.88627Z" fill="white"/>
<path d="M15.1628 6.1242L14.7134 6.35073L15.1622 7.24116L14.9319 7.35725L13.8233 5.15787L14.5845 4.77418C14.8401 4.64534 15.0623 4.61087 15.2524 4.66652C15.4453 4.72076 15.5877 4.84269 15.6798 5.02527C15.7704 5.20504 15.7864 5.37661 15.7264 5.54421C15.6665 5.7118 15.5558 5.84862 15.393 5.95887L16.5414 6.54599L16.2605 6.68758L15.1628 6.1242ZM14.1626 5.25806L14.6072 6.14006L15.1184 5.88238C15.3038 5.78894 15.4216 5.67321 15.4704 5.53941C15.5192 5.40561 15.5132 5.2748 15.4509 5.15121C15.3263 4.90402 15.0643 4.80358 14.6795 4.99755L14.1626 5.25806Z" fill="white"/>
<path d="M17.3086 5.59396L17.2515 6.27638L17.0009 6.36013L17.2286 3.68716L17.506 3.59443L19.2951 5.59339L19.0355 5.68014L18.5825 5.16822L17.3086 5.59396ZM17.3264 5.3393L18.4123 4.97637L17.4476 3.89587L17.3264 5.3393Z" fill="white"/>
<path d="M21.5423 2.69792L21.9551 5.12604L21.6822 5.17245L19.8761 3.35134L20.2278 5.41974L19.9766 5.46245L19.5638 3.03433L19.8584 2.98424L21.6359 4.76872L21.2911 2.74063L21.5423 2.69792Z" fill="white"/>
<path d="M25.0857 3.28913L24.8547 3.39985C24.7921 3.22783 24.686 3.08799 24.5426 2.97391C24.3992 2.85984 24.2095 2.80315 23.9736 2.80697C23.7063 2.81131 23.4782 2.9094 23.2926 3.10117C23.1101 3.29289 23.0196 3.53345 23.0243 3.82595C23.029 4.1153 23.121 4.35605 23.3004 4.55134C23.4828 4.74343 23.7171 4.83715 24.0096 4.8324C24.2392 4.82867 24.4363 4.75941 24.6009 4.62461C24.7686 4.48975 24.8569 4.309 24.8658 4.08234L23.8373 4.09904L23.8334 3.86001L25.1387 3.83882L25.1402 3.93317C25.1454 4.25398 25.0459 4.523 24.8387 4.74029C24.6346 4.95753 24.3564 5.06901 24.0073 5.07468C23.6393 5.08065 23.3417 4.96594 23.1114 4.73373C22.8812 4.50151 22.7631 4.20456 22.7573 3.84602C22.7515 3.49061 22.8661 3.18674 23.0981 2.94073C23.33 2.69473 23.6237 2.56727 23.9759 2.56155C24.259 2.55696 24.4961 2.62547 24.6872 2.77022C24.8814 2.91179 25.0132 3.08582 25.0857 3.28913Z" fill="white"/>
<path d="M27.8127 2.90654L27.7809 3.14348L26.5089 2.97285L26.3956 3.81773L27.5584 3.97372L27.5267 4.21066L26.3638 4.05467L26.245 4.94008L27.5295 5.11238L27.4977 5.34932L25.9576 5.14273L26.285 2.70162L27.8127 2.90654Z" fill="white"/>
<path d="M30.3912 6.16179L30.2942 3.50875L30.5635 3.6058L30.6265 5.93564L32.1674 4.18388L32.4307 4.2788L30.6635 6.25991L30.3912 6.16179Z" fill="white"/>
<path d="M32.6201 6.41799L32.0871 6.84795L31.8534 6.72456L33.9438 5.04317L34.2025 5.17979L33.9924 7.85421L33.7504 7.72641L33.8078 7.04525L32.6201 6.41799ZM32.8165 6.25492L33.8289 6.78963L33.9441 5.34571L32.8165 6.25492Z" fill="white"/>
<path d="M36.2036 6.42036L34.914 8.22833L35.8641 8.90601L35.7235 9.10319L34.5634 8.27573L35.9936 6.27058L36.2036 6.42036Z" fill="white"/>
<path d="M38.2084 8.00717L36.7126 9.64868L37.5752 10.4347L37.4121 10.6137L36.3588 9.65398L38.0177 7.83344L38.2084 8.00717Z" fill="white"/>
<path d="M40.8521 10.8044L40.6703 10.9596L39.837 9.98355L39.1887 10.5371L39.9505 11.4294L39.7687 11.5846L39.0069 10.6923L38.3275 11.2723L39.169 12.258L38.9872 12.4132L37.9782 11.2314L39.8513 9.63216L40.8521 10.8044Z" fill="white"/>
<path d="M42.6273 13.444L40.9143 13.4068L40.0379 13.969L39.897 13.7492L40.7707 13.1887L41.4554 11.6171L41.6236 11.8792L41.0529 13.1684L42.4677 13.1951L42.6273 13.444Z" fill="white"/>
<path d="M9.30888 40.3159L10.8078 38.679L10.2003 38.1228L10.3638 37.9442L11.7689 39.2308L11.6054 39.4094L11.0002 38.8552L9.50132 40.4922L9.30888 40.3159Z" fill="white"/>
<path d="M13.5561 40.5197L13.4176 40.7132L12.3786 39.9692L11.8844 40.6593L12.8343 41.3395L12.6957 41.533L11.7459 40.8529L11.228 41.5761L12.2772 42.3273L12.1386 42.5209L10.8806 41.6201L12.3083 39.6262L13.5561 40.5197Z" fill="white"/>
<path d="M13.57 42.6095L13.0325 43.0332L12.8004 42.9073L14.9082 41.2503L15.1652 41.3897L14.9254 44.0602L14.685 43.9297L14.7499 43.2496L13.57 42.6095ZM13.7681 42.4487L14.774 42.9944L14.9052 41.5527L13.7681 42.4487Z" fill="white"/>
<path d="M17.5215 44.3195L17.0796 44.8447L16.8261 44.7681L18.5601 42.7131L18.8407 42.7979L19.147 45.4692L18.8844 45.3899L18.8102 44.7088L17.5215 44.3195ZM17.6834 44.1214L18.782 44.4533L18.6184 43.0107L17.6834 44.1214Z" fill="white"/>
<path d="M22.3289 43.4753L21.9459 45.907L21.6726 45.8639L20.5423 43.5631L20.2161 45.6345L19.9646 45.5949L20.3475 43.1633L20.6425 43.2097L21.7574 45.4667L22.0773 43.4357L22.3289 43.4753Z" fill="white"/>
<path d="M23.0401 45.9438L23.0848 43.4826L23.8172 43.4959C24.1975 43.5028 24.5066 43.6248 24.7444 43.8649C24.9822 44.1019 25.0995 44.3965 25.0931 44.7454C25.0866 45.1069 24.9555 45.4 24.7029 45.6281C24.4504 45.8531 24.1403 45.9638 23.7725 45.9571L23.0401 45.9438ZM23.3382 43.7293L23.3023 45.7065L23.7675 45.7149C24.0787 45.7206 24.3286 45.6339 24.5237 45.452C24.7189 45.27 24.8206 45.036 24.8258 44.7468C24.831 44.4608 24.7411 44.2202 24.5527 44.0312C24.3674 43.8424 24.1177 43.7435 23.8002 43.7377L23.3382 43.7293Z" fill="white"/>
<path d="M28.3156 45.5702C27.9058 45.6455 27.5923 45.4992 27.3726 45.1351L27.5704 44.9809C27.7485 45.2571 27.9608 45.3901 28.272 45.333C28.4168 45.3064 28.5327 45.2437 28.6171 45.1486C28.7047 45.0529 28.7353 44.9421 28.7127 44.8189C28.6674 44.5724 28.4498 44.4627 28.0636 44.4413C27.5486 44.4116 27.2816 44.2409 27.2199 43.9051C27.1831 43.7049 27.2282 43.5341 27.354 43.3868C27.4798 43.2395 27.6472 43.1451 27.8567 43.1066C28.2388 43.0364 28.5399 43.1849 28.7099 43.469L28.5164 43.6288C28.3677 43.3917 28.1591 43.2963 27.8941 43.3449C27.7586 43.3698 27.6483 43.4283 27.5638 43.5235C27.4794 43.6186 27.4482 43.7262 27.4703 43.8464C27.5105 44.0651 27.6798 44.155 28.064 44.1832C28.3605 44.202 28.5825 44.2663 28.727 44.3767C28.86 44.4765 28.9403 44.6019 28.9681 44.7529C29.002 44.9377 28.9606 45.111 28.8432 45.2695C28.7258 45.428 28.5497 45.5272 28.3156 45.5702Z" fill="white"/>
<path d="M30.3938 45.018L30.1489 45.0953L29.4104 42.7568L30.1929 42.5097C30.4617 42.4248 30.6865 42.4294 30.8693 42.5195C31.0521 42.6095 31.1736 42.7551 31.2358 42.9522C31.3019 43.1613 31.2819 43.3581 31.173 43.5436C31.0631 43.7261 30.8727 43.8617 30.6009 43.9475L30.1052 44.1041L30.3938 45.018ZM29.7279 42.9094L30.0335 43.8771L30.5382 43.7177C30.7383 43.6545 30.8726 43.5596 30.9439 43.432C31.0144 43.3013 31.0293 43.1718 30.9878 43.0404C30.9453 42.906 30.8647 42.8066 30.7429 42.7433C30.6211 42.68 30.4566 42.6793 30.2446 42.7463L29.7279 42.9094Z" fill="white"/>
<path d="M31.8846 41.8376L32.85 44.1021L32.6128 44.2032L31.6475 41.9387L31.8846 41.8376Z" fill="white"/>
<path d="M35.1695 42.9423C34.8681 43.1119 34.5563 43.1538 34.2367 43.0667C33.9156 42.9768 33.6678 42.7735 33.489 42.4557C33.3086 42.1351 33.2648 41.8135 33.3601 41.4893C33.454 41.1624 33.6502 40.9149 33.9489 40.7469C34.1955 40.6082 34.438 40.5583 34.6776 40.5931C34.9172 40.6278 35.1158 40.7181 35.2751 40.8665L35.1247 41.0738C34.9879 40.9523 34.8278 40.8729 34.6447 40.8424C34.4628 40.8077 34.2691 40.8481 34.0636 40.9637C33.8307 41.0947 33.6797 41.2879 33.6078 41.5448C33.5386 41.8001 33.5736 42.0546 33.7169 42.3094C33.8603 42.5642 34.0599 42.7333 34.3129 42.811C34.5658 42.8887 34.8136 42.8612 35.0575 42.724C35.4384 42.5097 35.5776 42.1609 35.5113 41.7545L35.768 41.7363C35.8083 41.9554 35.7783 42.1778 35.6809 42.4022C35.5862 42.625 35.4134 42.8051 35.1695 42.9423Z" fill="white"/>
<path d="M36.5748 38.9409L36.7178 39.1323L35.6905 39.9003L36.2006 40.5826L37.1398 39.8805L37.2829 40.0719L36.3437 40.774L36.8783 41.4891L37.9157 40.7136L38.0587 40.905L36.8148 41.8349L35.341 39.8632L36.5748 38.9409Z" fill="white"/>
<path d="M39.3418 39.7333C39.0366 40.0218 38.6912 40.0702 38.3055 39.8828L38.3882 39.6439C38.6904 39.7797 38.943 39.7757 39.1748 39.5566C39.2826 39.4546 39.3462 39.338 39.3654 39.2112C39.3869 39.0823 39.3521 38.9718 39.2653 38.88C39.0918 38.6964 38.8475 38.7231 38.5092 38.9168C38.0574 39.1744 37.7379 39.1766 37.5015 38.9264C37.3605 38.7772 37.3049 38.6081 37.3305 38.4145C37.356 38.2209 37.4458 38.0492 37.6018 37.9016C37.8864 37.6327 38.2226 37.593 38.5223 37.7399L38.4462 37.9813C38.1904 37.8624 37.9616 37.8961 37.7643 38.0827C37.6633 38.1781 37.6021 38.2881 37.5829 38.4149C37.5637 38.5417 37.5964 38.6498 37.681 38.7393C37.835 38.9023 38.0276 38.8854 38.3679 38.6984C38.629 38.5516 38.852 38.4842 39.0348 38.4982C39.202 38.5097 39.3388 38.5716 39.4451 38.684C39.5752 38.8217 39.6352 38.991 39.6229 39.1894C39.6107 39.3879 39.5162 39.5684 39.3418 39.7333Z" fill="white"/>
<path d="M22.4757 20.281V23.0469L21.8643 22.2322V20.281H22.4757Z" fill="#CEC55B"/>
<path d="M26.1378 20.281V22.2293L25.5264 23.0446V20.281H26.1378Z" fill="#CEC55B"/>
<path d="M21.8643 27.6828V24.9169L22.4757 25.7316V27.6828H21.8643Z" fill="#CEC55B"/>
<path d="M25.5264 27.6827V25.7345L26.1378 24.9192V27.6827H25.5264Z" fill="#CEC55B"/>
<path d="M28.3871 21.2721L26.1375 24.2698L25.526 25.0845L24.3819 26.61L23.9994 27.1192L23.6175 26.61L22.4751 25.0874L21.8637 24.2728L19.6123 21.2721H20.3768L21.8637 23.2537L22.4751 24.0683L23.9994 26.1007L25.526 24.066L26.1375 23.2507L27.6226 21.2721H28.3871Z" fill="white"/>
<path fill-rule="evenodd" clip-rule="evenodd" d="M26.8303 16.3202L24.0002 14.4012L19.974 16.6882L18.7096 16.3588L17.3711 17.0345L17.6327 16.5065L12.4473 19.106L17.9574 15.2801L19.5062 15.804L24.0002 12.6836L29.9344 16.8038L31.4832 16.2799L35.5531 19.106L31.597 17.1822L29.6038 17.7902L26.4209 15.1773L26.8303 16.3202Z" fill="white"/>
<path fill-rule="evenodd" clip-rule="evenodd" d="M15.8652 19.106H15.3174L18.8612 17.0923L15.8652 19.106Z" fill="white"/>
<path fill-rule="evenodd" clip-rule="evenodd" d="M29.4673 19.106H30.0156L27.415 17.0923L29.4673 19.106Z" fill="#CEC55B"/>
<path opacity="0.5" fill-rule="evenodd" clip-rule="evenodd" d="M26.8303 31.6874L24.0002 33.6064L19.974 31.3188L18.7096 31.6488L17.3711 30.9731L17.6327 31.5011L12.4473 28.9016L17.9574 32.7275L19.5062 32.2036L24.0002 35.324L29.9344 31.2038L31.4832 31.7276L35.5531 28.9016L31.597 30.8253L29.6038 30.2174L26.4209 32.8297L26.8303 31.6874Z" fill="white"/>
<path opacity="0.5" fill-rule="evenodd" clip-rule="evenodd" d="M15.8652 28.9016H15.3174L18.8612 30.9153L15.8652 28.9016Z" fill="#CEC55B"/>
<path opacity="0.5" fill-rule="evenodd" clip-rule="evenodd" d="M29.4673 28.9016H30.0156L27.415 30.9153L29.4673 28.9016Z" fill="white"/>
</g>
<path d="M69.7361 8.04293H71.7323V21.9949H69.7361V16.0063H62.7172V21.9949H60.6995V8.04293H62.7172V14.053H69.7361V8.04293Z" fill="#0C0D0C"/>
<path d="M75.4411 10.2323C74.8831 10.2323 74.3035 9.78155 74.3035 9.09469C74.3035 8.38636 74.8831 8 75.4411 8C75.9992 8 76.5573 8.38636 76.5573 9.09469C76.5573 9.78155 75.9992 10.2323 75.4411 10.2323ZM76.407 21.9949H74.4752V12.1212H76.407V21.9949Z" fill="#0C0D0C"/>
<path d="M86.9807 12.1212H88.9125V21.2651C88.9125 24.1198 86.9377 26.116 83.6966 26.116C81.958 26.116 80.4769 25.4292 79.5754 24.356L80.8418 23.2827C81.636 24.1413 82.6878 24.4633 83.6966 24.4633C85.2206 24.4633 86.9807 23.5618 86.9807 21.2651V20.4709C86.2509 21.5012 85.0918 22.1666 83.5678 22.1666C80.7989 22.1666 78.8027 19.9987 78.8027 17.058C78.8027 14.1174 80.7989 11.9709 83.5678 11.9709C85.0918 11.9709 86.2509 12.6149 86.9807 13.6666V12.1212ZM83.8254 20.3421C85.7357 20.3421 86.9807 18.9469 86.9807 17.058C86.9807 15.1477 85.7357 13.7954 83.8254 13.7954C81.9365 13.7954 80.6916 15.1477 80.6916 17.058C80.6916 18.9469 81.9365 20.3421 83.8254 20.3421Z" fill="#0C0D0C"/>
<path d="M96.4717 11.9709C98.382 11.9709 100.378 13.0656 100.378 15.9204V21.9949H98.4464V16.1994C98.4464 14.375 97.1585 13.6237 95.9136 13.6237C94.6901 13.6237 93.4237 14.375 93.4237 16.1994V21.9949H91.4919V8.04293H93.4237V13.3232C94.175 12.3573 95.334 11.9709 96.4717 11.9709Z" fill="#0C0D0C"/>
<path d="M104.89 13.9457C105.662 12.5934 106.993 11.9924 108.367 11.9709V13.7954C107.036 13.8169 104.89 14.3964 104.89 16.9292V21.9949H102.958V12.1212H104.89V13.9457Z" fill="#0C0D0C"/>
<path d="M117.501 12.1212H119.432V21.9949H117.501V20.4709C116.771 21.5226 115.633 22.1666 114.109 22.1666C111.319 22.1666 109.323 19.9987 109.323 17.058C109.323 14.0745 111.319 11.9709 114.109 11.9709C115.633 11.9709 116.771 12.6149 117.501 13.6452V12.1212ZM114.367 20.3421C116.256 20.3421 117.501 18.9469 117.501 17.058C117.501 15.1477 116.256 13.7954 114.367 13.7954C112.456 13.7954 111.211 15.1477 111.211 17.058C111.211 18.9469 112.456 20.3421 114.367 20.3421Z" fill="#0C0D0C"/>
<path d="M126.992 11.9709C128.902 11.9709 130.898 13.0656 130.898 15.9204V21.9949H128.966V16.1994C128.966 14.375 127.678 13.6237 126.433 13.6237C125.21 13.6237 123.944 14.375 123.944 16.1994V21.9949H122.012V12.1212H123.944V13.3232C124.695 12.3573 125.854 11.9709 126.992 11.9709Z" fill="#0C0D0C"/>
<path d="M141.334 12.1212H143.265V21.2651C143.265 24.1198 141.291 26.116 138.05 26.116C136.311 26.116 134.83 25.4292 133.928 24.356L135.195 23.2827C135.989 24.1413 137.041 24.4633 138.05 24.4633C139.574 24.4633 141.334 23.5618 141.334 21.2651V20.4709C140.604 21.5012 139.445 22.1666 137.921 22.1666C135.152 22.1666 133.156 19.9987 133.156 17.058C133.156 14.1174 135.152 11.9709 137.921 11.9709C139.445 11.9709 140.604 12.6149 141.334 13.6666V12.1212ZM138.178 20.3421C140.089 20.3421 141.334 18.9469 141.334 17.058C141.334 15.1477 140.089 13.7954 138.178 13.7954C136.289 13.7954 135.045 15.1477 135.045 17.058C135.045 18.9469 136.289 20.3421 138.178 20.3421Z" fill="#0C0D0C"/>
<path d="M150.417 11.9495C153.293 11.9495 155.16 14.1174 155.16 17.058V17.6161H147.39C147.584 19.3762 148.828 20.5138 150.546 20.5138C151.962 20.5138 152.864 19.8699 153.336 19.183L154.688 20.1489C153.83 21.3939 152.349 22.188 150.546 22.188C147.541 22.188 145.523 19.9987 145.523 17.058C145.523 14.1174 147.455 11.9495 150.417 11.9495ZM150.417 13.4949C148.721 13.4949 147.626 14.6325 147.39 16.3497H153.357C153.121 14.6969 152.07 13.4949 150.417 13.4949Z" fill="#0C0D0C"/>
<path d="M171.737 8.04293H173.883L168.281 21.9949H166.671L161.069 8.04293H163.215L167.487 18.7323L171.737 8.04293Z" fill="#0C0D0C"/>
<path d="M181.957 12.1212H183.889V21.9949H181.957V20.4709C181.227 21.5226 180.089 22.1666 178.566 22.1666C175.775 22.1666 173.779 19.9987 173.779 17.058C173.779 14.0745 175.775 11.9709 178.566 11.9709C180.089 11.9709 181.227 12.6149 181.957 13.6452V12.1212ZM178.823 20.3421C180.712 20.3421 181.957 18.9469 181.957 17.058C181.957 15.1477 180.712 13.7954 178.823 13.7954C176.913 13.7954 175.668 15.1477 175.668 17.058C175.668 18.9469 176.913 20.3421 178.823 20.3421Z" fill="#0C0D0C"/>
<path d="M188.4 21.9949H186.468V8.04293H188.421L188.4 21.9949Z" fill="#0C0D0C"/>
<path d="M192.928 21.9949H190.996V8.04293H192.949L192.928 21.9949Z" fill="#0C0D0C"/>
<path d="M200.095 11.9495C202.972 11.9495 204.839 14.1174 204.839 17.058V17.6161H197.069C197.262 19.3762 198.507 20.5138 200.224 20.5138C201.641 20.5138 202.542 19.8699 203.015 19.183L204.367 20.1489C203.508 21.3939 202.027 22.188 200.224 22.188C197.219 22.188 195.202 19.9987 195.202 17.058C195.202 14.1174 197.133 11.9495 200.095 11.9495ZM200.095 13.4949C198.4 13.4949 197.305 14.6325 197.069 16.3497H203.036C202.8 14.6969 201.748 13.4949 200.095 13.4949Z" fill="#0C0D0C"/>
<path d="M213.522 12.1212H215.54L210.045 25.9443H208.135L209.701 21.9949L205.816 12.1212H207.834L210.667 19.3118L213.522 12.1212Z" fill="#0C0D0C"/>
<path d="M65.293 32.906V33.4855H62.9641V39.8819H62.3416V33.4855H60.002V32.906H65.293Z" fill="#5C5C5C"/>
<path d="M76.8302 33.4855H72.9988V36.1149H76.6048V36.6945H72.9988V39.3024H76.8302V39.8819H72.3763V32.906H76.8302V33.4855Z" fill="#5C5C5C"/>
<path d="M89.3337 39.8819L88.5502 37.9716H85.2018L84.4183 39.8819H83.7529L86.6399 32.906H87.1121L89.9991 39.8819H89.3337ZM85.4379 37.3921H88.3141L86.876 33.8719L85.4379 37.3921Z" fill="#5C5C5C"/>
<path d="M110.174 39.8819L109.39 37.9716H106.042L105.258 39.8819H104.593L107.48 32.906H107.952L110.839 39.8819H110.174ZM106.278 37.3921H109.154L107.716 33.8719L106.278 37.3921Z" fill="#5C5C5C"/>
<path d="M122.35 32.906H122.973V39.8819H122.361L118.337 33.9685V39.8819H117.714V32.906H118.315L122.35 38.8302V32.906Z" fill="#5C5C5C"/>
<path d="M132.568 32.906C134.629 32.906 136.014 34.3226 136.014 36.394C136.014 38.4653 134.629 39.8819 132.568 39.8819H130.272V32.906H132.568ZM132.568 39.2702C134.092 39.2702 135.391 38.2506 135.391 36.394C135.391 34.5373 134.092 33.507 132.568 33.507H130.894V39.2702H132.568Z" fill="#5C5C5C"/>
<path d="M150.991 38.4224L151.506 38.1004C151.786 38.8302 152.644 39.3775 153.857 39.3775C155.177 39.3775 155.767 38.8838 155.767 37.9609C155.767 36.9413 154.318 36.7052 153.653 36.5228C152.934 36.3403 151.227 36.0827 151.227 34.6768C151.227 33.4211 152.29 32.7879 153.803 32.7879C155.07 32.7879 156.078 33.3675 156.336 34.1402L155.81 34.4192C155.617 33.8612 154.791 33.3997 153.75 33.3997C152.569 33.3997 151.914 33.8612 151.914 34.6553C151.914 35.5998 153.234 35.793 153.975 35.9754C154.619 36.1579 156.443 36.4906 156.443 37.9394C156.443 39.2917 155.477 40 153.803 40C152.333 40 151.324 39.3561 150.991 38.4224Z" fill="#5C5C5C"/>
<path d="M166.635 32.906C167.698 32.906 168.589 33.7646 168.589 34.9773C168.589 36.1901 167.698 37.0486 166.635 37.0486H164.145V39.8819H163.523V32.906H166.635ZM166.56 36.4369C167.387 36.4369 167.977 35.7715 167.977 34.9773C167.977 34.1831 167.397 33.507 166.56 33.507H164.145V36.4369H166.56Z" fill="#5C5C5C"/>
<path d="M176.295 39.8819H175.672V32.906H176.295V39.8819Z" fill="#5C5C5C"/>
<path d="M189.297 34.5802C188.814 33.8933 187.998 33.4426 186.978 33.4426C185.261 33.4426 184.113 34.6875 184.113 36.394C184.113 38.1004 185.261 39.3453 186.978 39.3453C187.998 39.3453 188.814 38.8731 189.297 38.197L189.801 38.5619C189.2 39.4312 188.213 39.9678 186.978 39.9678C184.907 39.9678 183.49 38.4653 183.49 36.394C183.49 34.3226 184.907 32.8201 186.978 32.8201C188.213 32.8201 189.2 33.3567 189.801 34.226L189.297 34.5802Z" fill="#5C5C5C"/>
<path d="M201.322 33.4855H197.491V36.1149H201.097V36.6945H197.491V39.3024H201.322V39.8819H196.868V32.906H201.322V33.4855Z" fill="#5C5C5C"/>
<path d="M208.164 38.4224L208.679 38.1004C208.958 38.8302 209.816 39.3775 211.029 39.3775C212.349 39.3775 212.939 38.8838 212.939 37.9609C212.939 36.9413 211.491 36.7052 210.825 36.5228C210.106 36.3403 208.4 36.0827 208.4 34.6768C208.4 33.4211 209.462 32.7879 210.975 32.7879C212.242 32.7879 213.251 33.3675 213.508 34.1402L212.982 34.4192C212.789 33.8612 211.963 33.3997 210.922 33.3997C209.741 33.3997 209.087 33.8612 209.087 34.6553C209.087 35.5998 210.407 35.793 211.147 35.9754C211.791 36.1579 213.616 36.4906 213.616 37.9394C213.616 39.2917 212.65 40 210.975 40C209.505 40 208.496 39.3561 208.164 38.4224Z" fill="#5C5C5C"/>
</g>
<defs>
<radialGradient id="paint0_radial_3121_9075" cx="0" cy="0" r="1" gradientUnits="userSpaceOnUse" gradientTransform="translate(24.002 24) scale(24 24)">
<stop stop-color="#15722F"/>
<stop offset="1" stop-color="#063D1B"/>
</radialGradient>
<clipPath id="clip0_3121_9075">
<rect width="215.54" height="48" fill="white"/>
</clipPath>
<clipPath id="clip1_3121_9075">
<rect width="48.0017" height="48" fill="white"/>
</clipPath>
</defs>
</svg>
